# 
# Wavefront OBJ file
# Converted by the DEEP Exploration 2.1.12.1218
# Right Hemisphere, LTD
# http://www.righthemisphere.com/
# 
mtllib house.mtl
# object House
g House
v 0.13368 1.02101 -0.416816
v -0.124933 1.02101 -0.416816
v 0.0340525 1.17763 -0.416816
v -0.0253054 1.17763 -0.416816
v 0.13368 1.02101 -0.447603
v -0.124933 1.02101 -0.447603
v 0.0340525 1.17763 -0.447603
v -0.0253054 1.17763 -0.447604
v 0.10905 1.04564 -0.45684
v -0.100303 1.04564 -0.45684
v 0.0283994 1.16845 -0.45684
v -0.0196523 1.16845 -0.45684
v 0.102893 1.0518 -0.43221
v -0.0941454 1.0518 -0.43221
v 0.0269861 1.16615 -0.43221
v -0.018239 1.16615 -0.43221
v 0.565057 0.929426 0.618298
v 0.262043 1.15244 0.618298
v -0.0409705 1.37545 0.618298
v 0.565056 0.929425 -0.452695
v 0.262043 1.15244 -0.452695
v -0.0409709 1.37545 -0.452695
v 0.593759 0.968424 0.618298
v 0.290746 1.19144 0.618298
v -0.0122681 1.41445 0.618298
v 0.593759 0.968424 -0.452695
v 0.290745 1.19144 -0.452695
v -0.0122684 1.41445 -0.452695
v -0.580702 0.929426 0.618298
v -0.277688 1.15244 0.618298
v 0.0253262 1.37545 0.618298
v -0.580702 0.929426 -0.452695
v -0.277688 1.15244 -0.452695
v 0.0253259 1.37545 -0.452695
v -0.609404 0.968425 0.618298
v -0.30639 1.19144 0.618298
v -0.00337625 1.41445 0.618298
v -0.609404 0.968425 -0.452695
v -0.30639 1.19144 -0.452695
v -0.00337649 1.41445 -0.452695
v -0.5 0.00229789 0.583075
v -4.84491e-008 0.00229773 0.583075
v 0.5 0.0022975 0.583075
v -0.5 0.0022978 -0.416925
v -3.18654e-007 0.00229764 -0.416925
v 0.5 0.00229748 -0.416925
v -0.5 1.0023 0.583075
v 4.01516e-007 1.38323 0.583075
v 0.5 1.0023 0.583075
v -0.5 1.0023 -0.416925
v 1.31311e-007 1.38323 -0.416925
v 0.5 1.0023 -0.416925
v -0.48803 0.00802251 0.107421
v -0.48803 0.00802249 0.507986
v -0.48803 0.691595 0.107421
v -0.48803 0.691595 0.507986
v -0.522862 0.00802246 0.107421
v -0.522862 0.0080225 0.507986
v -0.522862 0.691595 0.107421
v -0.522862 0.691595 0.507986
v -0.53157 0.0428542 0.142253
v -0.53157 0.0428543 0.473154
v -0.53157 0.656763 0.142253
v -0.53157 0.656763 0.473154
v -0.514154 0.0472082 0.146607
v -0.514154 0.0472082 0.4688
v -0.514154 0.652409 0.146607
v -0.514154 0.652409 0.4688
v -0.58411 0.00847274 0.128002
v -0.58411 0.00847271 0.487406
v -0.588594 0.0264087 0.145937
v -0.588594 0.0264086 0.46947
v -0.492679 0.444404 -0.264572
v -0.492679 0.444404 -0.00595937
v -0.492679 0.69378 -0.264572
v -0.492679 0.69378 -0.00595936
v -0.523466 0.444404 -0.264572
v -0.523466 0.444404 -0.00595937
v -0.523466 0.69378 -0.264572
v -0.523466 0.69378 -0.00595936
v -0.532703 0.469033 -0.239942
v -0.532702 0.469033 -0.0305891
v -0.532702 0.66915 -0.239942
v -0.532702 0.66915 -0.0305891
v -0.508073 0.475191 -0.233784
v -0.508073 0.475191 -0.0367465
v -0.508073 0.662993 -0.233784
v -0.508073 0.662993 -0.0367465
v 0.13368 1.02101 -0.416816
v -0.124933 1.02101 -0.416816
v 0.13368 1.02101 -0.416816
v -0.0253054 1.17763 -0.416816
v -0.124933 1.02101 -0.447603
v -0.0253054 1.17763 -0.416816
v 0.0340525 1.17763 -0.416816
v -0.0253054 1.17763 -0.447604
v -0.0253054 1.17763 -0.416816
v 0.0340525 1.17763 -0.416816
v 0.13368 1.02101 -0.447603
v 0.13368 1.02101 -0.447603
v 0.0340525 1.17763 -0.447603
v 0.0340525 1.17763 -0.416816
v 0.13368 1.02101 -0.447603
v -0.124933 1.02101 -0.447603
v 0.13368 1.02101 -0.447603
v -0.124933 1.02101 -0.447603
v -0.124933 1.02101 -0.447603
v 0.0340525 1.17763 -0.447603
v 0.0340525 1.17763 -0.447603
v 0.13368 1.02101 -0.447603
v 0.0340525 1.17763 -0.447603
v 0.565057 0.929426 0.618298
v 0.290746 1.19144 0.618298
v 0.290746 1.19144 0.618298
v 0.565057 0.929426 0.618298
v 0.593759 0.968424 0.618298
v -0.0122681 1.41445 0.618298
v -0.0409705 1.37545 0.618298
v -0.0122681 1.41445 0.618298
v 0.290746 1.19144 0.618298
v -0.0409709 1.37545 -0.452695
v -0.0122681 1.41445 0.618298
v -0.0409709 1.37545 -0.452695
v 0.262043 1.15244 -0.452695
v -0.0409709 1.37545 -0.452695
v -0.0122684 1.41445 -0.452695
v 0.262043 1.15244 -0.452695
v 0.593759 0.968424 -0.452695
v 0.565056 0.929425 -0.452695
v 0.593759 0.968424 -0.452695
v 0.262043 1.15244 -0.452695
v 0.565056 0.929425 -0.452695
v 0.593759 0.968424 0.618298
v 0.593759 0.968424 0.618298
v 0.565056 0.929425 -0.452695
v -0.580702 0.929426 0.618298
v -0.30639 1.19144 0.618298
v -0.30639 1.19144 0.618298
v -0.609404 0.968425 0.618298
v -0.580702 0.929426 0.618298
v 0.0253262 1.37545 0.618298
v -0.00337625 1.41445 0.618298
v -0.00337625 1.41445 0.618298
v -0.30639 1.19144 0.618298
v 0.0253259 1.37545 -0.452695
v -0.00337625 1.41445 0.618298
v 0.0253259 1.37545 -0.452695
v -0.277688 1.15244 -0.452695
v -0.00337649 1.41445 -0.452695
v 0.0253259 1.37545 -0.452695
v -0.277688 1.15244 -0.452695
v -0.580702 0.929426 -0.452695
v -0.609404 0.968425 -0.452695
v -0.609404 0.968425 -0.452695
v -0.277688 1.15244 -0.452695
v -0.580702 0.929426 -0.452695
v -0.609404 0.968425 0.618298
v -0.609404 0.968425 0.618298
v -0.580702 0.929426 -0.452695
v -0.5 0.00229789 0.583075
v 4.01516e-007 1.38323 0.583075
v 4.01516e-007 1.38323 0.583075
v -0.5 1.0023 0.583075
v -0.5 0.00229789 0.583075
v 0.5 0.0022975 0.583075
v 0.5 1.0023 0.583075
v 0.5 1.0023 0.583075
v 4.01516e-007 1.38323 0.583075
v 0.5 0.00229748 -0.416925
v 0.5 1.0023 0.583075
v 0.5 0.00229748 -0.416925
v -3.18654e-007 0.00229764 -0.416925
v 0.5 1.0023 -0.416925
v 0.5 0.00229748 -0.416925
v -3.18654e-007 0.00229764 -0.416925
v -0.5 0.0022978 -0.416925
v -0.5 1.0023 -0.416925
v -0.5 1.0023 -0.416925
v -3.18654e-007 0.00229764 -0.416925
v -0.5 0.0022978 -0.416925
v -0.5 1.0023 0.583075
v -0.5 1.0023 0.583075
v -0.5 0.0022978 -0.416925
v -0.48803 0.00802251 0.107421
v -0.48803 0.00802249 0.507986
v -0.48803 0.00802251 0.107421
v -0.48803 0.691595 0.507986
v -0.522862 0.0080225 0.507986
v -0.48803 0.691595 0.507986
v -0.48803 0.691595 0.107421
v -0.522862 0.691595 0.507986
v -0.48803 0.691595 0.507986
v -0.48803 0.691595 0.107421
v -0.522862 0.00802246 0.107421
v -0.522862 0.00802246 0.107421
v -0.522862 0.691595 0.107421
v -0.48803 0.691595 0.107421
v -0.522862 0.0080225 0.507986
v -0.522862 0.0080225 0.507986
v -0.522862 0.691595 0.107421
v -0.522862 0.691595 0.107421
v -0.522862 0.00802246 0.107421
v -0.522862 0.691595 0.107421
v -0.522862 0.00802246 0.107421
v -0.522862 0.0080225 0.507986
v -0.522862 0.00802246 0.107421
v -0.522862 0.0080225 0.507986
v -0.522862 0.0080225 0.507986
v -0.522862 0.00802246 0.107421
v -0.492679 0.444404 -0.264572
v -0.492679 0.444404 -0.00595937
v -0.492679 0.444404 -0.264572
v -0.492679 0.69378 -0.00595936
v -0.523466 0.444404 -0.00595937
v -0.492679 0.69378 -0.00595936
v -0.492679 0.69378 -0.264572
v -0.523466 0.69378 -0.00595936
v -0.492679 0.69378 -0.00595936
v -0.492679 0.69378 -0.264572
v -0.523466 0.444404 -0.264572
v -0.523466 0.444404 -0.264572
v -0.523466 0.69378 -0.264572
v -0.492679 0.69378 -0.264572
v -0.523466 0.444404 -0.264572
v -0.523466 0.444404 -0.00595937
v -0.523466 0.444404 -0.264572
v -0.523466 0.444404 -0.00595937
v -0.523466 0.444404 -0.00595937
v -0.523466 0.69378 -0.264572
v -0.523466 0.69378 -0.264572
v -0.523466 0.444404 -0.264572
v -0.523466 0.69378 -0.264572
# 232 verticies
vn -7.53118e-007 -3.83923e-007 1
vn -1.50624e-006 -1.14841e-006 1
vn 1.75426e-013 3.8057e-007 1
vn 6.58978e-007 1.76809e-007 -1
vn 0 -5.21241e-007 -1
vn 1.31796e-006 8.74859e-007 -1
vn -4.60957e-007 -1 -3.34659e-013
vn -4.60958e-007 -1 -5.57765e-014
vn -4.60958e-007 -1 2.23106e-013
vn -0.843758 0.536723 -2.5524e-007
vn -0.843758 0.536723 1.02096e-007
vn -0.843758 0.536723 -6.12576e-007
vn 0 1 0
vn 0.843759 0.536722 -4.08384e-007
vn 0.843759 0.536722 -5.10479e-007
vn -1.61853e-007 -0.351124 -0.936329
vn -1.99936e-007 -0.351124 -0.936329
vn -0.581854 0.370123 -0.724193
vn -0.663839 0.435967 -0.60766
vn 7.08061e-007 0.709078 -0.70513
vn 8.74663e-007 0.709079 -0.705129
vn 0.652847 0.415282 -0.633507
vn 0.574306 0.377167 -0.726579
vn 5.52417e-007 0.970143 -0.242534
vn 0 0.970142 -0.242539
vn 0.831783 -0.546263 -0.0986591
vn 0.831116 -0.551695 -0.0698561
vn 1.15151e-007 -0.995682 -0.0928314
vn 1.22348e-007 -0.995682 -0.0928314
vn -0.83372 -0.547533 -0.0715447
vn -0.829068 -0.550335 -0.0988826
vn -0.592749 -0.805387 2.7933e-007
vn -0.592749 -0.805387 2.76581e-007
vn -0.592749 -0.805387 2.87577e-007
vn -0.592749 -0.805387 3.00278e-007
vn -0.592749 -0.805387 3.14875e-007
vn -0.592749 -0.805387 3.58667e-007
vn 0.592749 0.805387 -2.7933e-007
vn 0.592749 0.805387 -2.76581e-007
vn 0.592749 0.805387 -3.00277e-007
vn 0.592749 0.805387 -2.87577e-007
vn 0.592749 0.805387 -3.14875e-007
vn 0.592749 0.805387 -3.58667e-007
vn 1.27593e-007 -9.3906e-008 1
vn 1.27593e-007 -9.3906e-008 1
vn 1.27593e-007 -9.39061e-008 1
vn 1.27593e-007 -9.39061e-008 1
vn 1.27593e-007 -9.3906e-008 1
vn -0.805387 0.59275 1.11769e-007
vn 1.73425e-007 6.36545e-007 -1
vn 7.30859e-008 4.55665e-007 -1
vn -1.27593e-007 9.39061e-008 -1
vn -1.27593e-007 9.39061e-008 -1
vn 1.73425e-007 6.36545e-007 -1
vn 0.805387 -0.592749 -2.02959e-007
vn 0.592748 -0.805388 -1.56696e-007
vn 0.592748 -0.805388 -1.64943e-007
vn 0.592748 -0.805388 -1.53947e-007
vn 0.592748 -0.805388 -1.45012e-007
vn 0.592749 -0.805388 -1.43294e-007
vn 0.592749 -0.805388 -1.3814e-007
vn -0.592749 0.805388 1.40202e-007
vn -0.592748 0.805388 1.12339e-007
vn -0.592748 0.805388 1.42951e-007
vn -0.592749 0.805388 1.31954e-007
vn -0.592749 0.805388 4.01183e-008
vn -0.592749 0.805388 9.42835e-008
vn 5.10373e-007 3.75623e-007 1
vn 1.70124e-007 1.25208e-007 1
vn 5.10373e-007 3.75623e-007 1
vn 0 0 1
vn 0.805387 0.592749 -2.14993e-007
vn 0.805387 0.592749 -1.87695e-007
vn 0.805388 0.592748 -2.42292e-007
vn 0 0 -1
vn -8.50622e-008 -6.26039e-008 -1
vn -2.55187e-007 -1.87811e-007 -1
vn -2.55187e-007 -1.87812e-007 -1
vn -0.805388 -0.592748 2.24114e-007
vn -0.805389 -0.592747 1.79291e-007
vn -3.25963e-007 -1 8.75444e-008
vn -3.25963e-007 -1 8.75444e-008
vn -3.25808e-007 -1 8.75444e-008
vn -3.65544e-007 -1 6.75986e-008
vn -3.85335e-007 -1 5.76257e-008
vn -4.45172e-007 -1 2.77069e-008
vn -0.606023 0.795447 1.92501e-007
vn 0.246142 0.969234 -3.48423e-008
vn -0.246142 0.969234 1.28377e-007
vn -0.606023 0.795447 1.26426e-007
vn 0.606024 0.795447 -2.75434e-007
vn 0.606024 0.795446 -1.7218e-007
vn 3.57628e-007 -1.1653e-013 1
vn 2.78155e-007 -9.31606e-014 1
vn 1.93008e-007 5.96046e-008 1
vn 2.38419e-007 -8.52651e-014 1
vn 2.38419e-007 -7.76866e-014 1
vn 1 -3.12924e-007 -2.5332e-007
vn 1 -2.68221e-007 -2.08616e-007
vn 1 -3.57628e-007 -2.98023e-007
vn -1.78814e-007 -2.15812e-008 -1
vn -2.48075e-007 -3.42557e-008 -1
vn -2.83829e-007 -5.96046e-008 -1
vn -2.98023e-007 -2.98022e-008 -1
vn -2.81581e-007 -2.15812e-008 -1
vn -1 2.98023e-007 2.38419e-007
vn -1 3.27826e-007 2.08616e-007
vn 1 -3.05185e-007 -7.44007e-008
vn 1 -3.48783e-007 0
vn 1 -2.61587e-007 -1.48801e-007
vn -1 3.44706e-007 2.77495e-007
vn -1 2.95462e-007 3.69993e-007
vn -1 3.93949e-007 1.84996e-007
vn -3.4759e-007 -1 -6.27756e-008
vn 5.21386e-007 -1 1.27877e-008
vn 1.39036e-006 -1 8.83509e-008
vn -1.71121e-006 5.22237e-013 1
vn -1.71122e-006 4.47632e-013 1
vn -1.71121e-006 5.96842e-013 1
vn -0.970143 -0.242533 -1.88543e-008
vn -0.970142 -0.242537 1.54992e-007
vn -0.970143 3.38369e-007 0.242536
vn -0.970143 3.06122e-007 0.242535
vn -0.970142 0.242537 0
vn -0.970142 0.242536 1.31062e-007
vn -0.970142 3.38369e-007 -0.242538
vn -0.970142 3.53218e-007 -0.242537
vn -0.242534 0.970143 1.09212e-008
vn -0.242534 0.970143 -7.67793e-013
vn -0.242534 -2.35484e-008 -0.970143
vn -0.242537 7.16605e-008 -0.970142
vn -0.242537 -0.970142 2.18438e-007
vn -0.242537 -0.970142 2.24341e-007
vn -0.242534 1.88382e-007 0.970143
vn -0.242537 9.55473e-008 0.970142
vn -0.00735052 -0.999973 8.83485e-008
vn -0.00735155 -0.999973 -7.77368e-008
vn -0.235764 0.65707 0.716013
vn -0.235763 0.657072 0.716012
vn -0.277106 0.960839 2.41091e-008
vn -0.277106 0.960839 1.45091e-007
vn -0.235763 0.657071 -0.716012
vn -0.235762 0.65707 -0.716013
vn 1 -3.58522e-007 -2.30479e-007
vn 1 -2.39015e-007 -3.45718e-007
vn 1 -4.7803e-007 -1.15239e-007
vn -1 3.17381e-007 3.02503e-007
vn -1 3.17381e-007 3.02503e-007
vn -9.68009e-007 -1 1.11553e-013
vn -9.6801e-007 -1 5.57764e-014
vn -9.6801e-007 -1 0
vn -9.07509e-008 -3.17441e-008 1
vn -9.07509e-008 -3.17441e-008 1
vn -9.07509e-008 -3.17441e-008 1
vn 0 1 2.30479e-007
vn -1.04581e-014 1 2.30479e-007
vn -2.09161e-014 1 2.30479e-007
vn 1.15684e-013 1.19507e-007 -1
vn 0 1.19507e-007 -1
vn -0.93633 -0.351122 0
vn -0.936329 -0.351123 2.16597e-007
vn -0.936329 4.36447e-007 0.351123
vn -0.93633 2.59276e-007 0.351122
vn -0.936329 0.351123 2.9673e-007
vn -0.936329 0.351124 2.66581e-007
vn -0.936329 2.65759e-007 -0.351123
vn -0.936329 2.78885e-007 -0.351123
vn -0.242536 0.970142 2.07156e-007
vn -0.242535 0.970143 7.33677e-008
vn -0.242535 1.26418e-007 -0.970143
vn -0.242535 1.34708e-007 -0.970143
vn -0.242536 -0.970142 6.90523e-008
vn -0.242536 -0.970142 7.3368e-008
vn -0.242535 7.22389e-008 0.970143
vn -0.242535 7.69759e-008 0.970143
# 175 normals
usemtl Window
f  1//1 3//2 4//1
f  4//1 2//3 1//1
f  13//4 14//5 16//4
f  16//4 15//6 13//4
usemtl DarkRed
f  89//7 90//7 6//8
f  6//8 5//9 91//9
f  2//10 92//11 8//10
f  8//10 93//12 2//10
f  94//13 95//13 7//13
f  7//13 96//13 97//13
f  98//14 1//14 99//14
f  100//15 101//15 102//15
f  103//16 104//16 10//16
f  10//17 9//17 105//17
f  106//18 8//18 12//18
f  12//19 10//19 107//19
f  8//20 108//20 11//20
f  11//21 12//21 8//21
f  109//22 110//22 9//22
f  9//23 11//23 111//23
f  9//24 10//24 14//24
f  14//25 13//25 9//25
f  10//26 12//26 16//26
f  16//27 14//27 10//27
f  12//28 11//28 15//28
f  15//29 16//29 12//29
f  11//30 9//30 13//30
f  13//31 15//31 11//31
usemtl MoreRed
f  17//32 21//33 20//34
f  21//33 17//32 18//35
f  18//35 22//36 21//33
f  22//36 18//35 19//37
f  23//38 27//39 24//40
f  27//39 23//38 26//41
f  24//40 28//42 25//43
f  28//42 24//40 27//39
f  112//44 113//44 18//45
f  114//46 115//46 116//46
f  18//45 117//47 118//47
f  119//48 18//45 120//48
f  19//49 28//49 121//49
f  28//49 19//49 122//49
f  123//50 27//51 124//50
f  27//51 125//52 126//52
f  127//53 128//53 129//53
f  130//54 131//54 27//51
f  132//55 133//55 17//55
f  134//55 135//55 26//55
f  29//56 32//57 33//58
f  33//58 30//59 29//56
f  30//59 33//58 34//60
f  34//60 31//61 30//59
f  35//62 36//63 39//64
f  39//64 38//65 35//62
f  36//63 37//66 40//67
f  40//67 39//64 36//63
f  136//68 30//69 137//68
f  138//70 139//70 140//70
f  30//69 141//71 142//71
f  143//71 144//71 30//69
f  31//72 145//73 40//72
f  40//72 146//74 31//72
f  147//75 148//75 39//76
f  39//76 149//75 150//75
f  151//77 152//77 153//77
f  154//78 39//76 155//78
f  156//79 29//79 157//79
f  158//80 38//80 159//80
usemtl White
f  41//81 44//82 45//83
f  45//83 42//84 41//81
f  42//84 45//83 46//85
f  46//85 43//86 42//84
usemtl MoreRed
f  47//87 48//88 51//89
f  51//89 50//90 47//87
f  48//88 49//91 52//92
f  52//92 51//89 48//88
usemtl White
f  160//93 42//94 161//93
f  162//95 163//95 164//95
f  42//94 165//96 166//96
f  167//97 168//97 42//94
f  43//98 169//99 52//98
f  52//98 170//100 43//98
f  171//101 172//101 51//102
f  51//102 173//103 174//103
f  175//104 176//104 177//104
f  178//105 51//102 179//105
f  180//106 41//106 181//106
f  182//107 50//107 183//107
usemtl RedMaterial
f  53//108 55//109 56//108
f  56//108 54//110 53//108
usemtl Door
f  65//111 66//112 68//111
f  68//111 67//113 65//111
usemtl RedMaterial
f  184//114 185//114 58//115
f  58//115 57//116 186//116
f  54//117 187//118 60//117
f  60//117 188//119 54//117
f  189//13 190//13 59//13
f  59//13 191//13 192//13
f  193//75 53//75 194//75
f  195//75 196//75 197//75
f  69//120 70//120 72//120
f  72//121 71//121 69//121
f  198//122 60//122 64//122
f  64//123 62//123 199//123
f  60//124 200//124 63//124
f  63//125 64//125 60//125
f  201//126 202//126 61//126
f  61//127 63//127 203//127
f  61//128 62//128 66//128
f  66//129 65//129 61//129
f  62//130 64//130 68//130
f  68//131 66//131 62//131
f  64//132 63//132 67//132
f  67//133 68//133 64//133
f  63//134 61//134 65//134
f  65//135 67//135 63//135
f  204//136 205//136 70//136
f  70//137 69//137 206//137
f  207//138 62//138 72//138
f  72//139 70//139 208//139
f  62//140 61//140 71//140
f  71//141 72//141 62//141
f  61//142 209//142 69//142
f  69//143 71//143 61//143
usemtl Window
f  73//144 75//145 76//144
f  76//144 74//146 73//144
f  85//147 86//148 88//147
f  88//147 87//147 85//147
usemtl DarkRed
f  210//149 211//149 78//150
f  78//150 77//151 212//151
f  74//152 213//153 80//152
f  80//152 214//154 74//152
f  215//155 216//155 79//156
f  79//156 217//157 218//157
f  219//158 73//158 220//158
f  221//159 222//159 223//159
f  224//160 225//160 82//160
f  82//161 81//161 226//161
f  227//162 80//162 84//162
f  84//163 82//163 228//163
f  80//164 229//164 83//164
f  83//165 84//165 80//165
f  230//166 231//166 81//166
f  81//167 83//167 232//167
f  81//168 82//168 86//168
f  86//169 85//169 81//169
f  82//170 84//170 88//170
f  88//171 86//171 82//171
f  84//172 83//172 87//172
f  87//173 88//173 84//173
f  83//174 81//174 85//174
f  85//175 87//175 83//175
